<?xml version="1.0" encoding="utf-8"?>
<!-- Generator: Adobe Illustrator 16.0.0, SVG Export Plug-In . SVG Version: 6.00 Build 0)  -->
<!DOCTYPE svg PUBLIC "-//W3C//DTD SVG 1.1//EN" "http://www.w3.org/Graphics/SVG/1.1/DTD/svg11.dtd">
<svg version="1.1" id="Layer_1" xmlns="http://www.w3.org/2000/svg" xmlns:xlink="http://www.w3.org/1999/xlink" x="0px" y="0px"
	 width="1080.443px" height="279.23px" viewBox="0 0 1080.443 279.23" enable-background="new 0 0 1080.443 279.23"
	 xml:space="preserve">
<path fill="#FFFFFF" d="M679.832,166.877c1.746,19.961,15.923,34.68,36.2,38.502c30.916,5.048,77.46,2.023,79.84-37.877V84.315
	H754.27v76.542c-3.867,17.659-29.178,16.168-32.75-1.884V84.315h-41.688V166.877"/>
<path fill="#FFFFFF" d="M862.992,163.729c2.436,5.196-1.109,9.836-8.083,10.307c-7.484,0.26-14.093-0.536-15.019-10.327
	l-39.642,0.035c-0.348,43.314,60.939,52.421,88.218,33.679c15.188-10.433,22.063-25.271,18.021-39.005
	c-4.765-16.334-24.002-29.202-41.831-29.128c-6.674-0.422-21.156-2.939-17.061-11.938c2.29-5.028,19.094-5.216,17.705,7.414
	l41.41-0.026c-6.241-34.156-47.417-48.928-79.278-35.569c-11.802,4.948-22.082,13.794-23.518,26.438
	C799.002,158.924,857.681,152.396,862.992,163.729z"/>
<polygon fill="#FFFFFF" points="498.195,118.436 517.445,84.316 561.6,84.316 521.916,154.562 521.916,206.652 474.476,206.652 
	474.476,154.562 434.793,84.316 478.946,84.316 "/>
<path fill="#FFFFFF" d="M293.664,84.315H253.25l-41.145,122.337h42.422l3.467-15.326h30.926l3.467,15.326h42.329L293.664,84.315z
	 M265.292,158.667l8.119-36.491l8.211,36.491H265.292z"/>
<polygon fill="#FFFFFF" points="431.965,120.897 397.026,120.897 397.026,206.652 355.881,206.652 355.881,120.897 320.94,120.897 
	320.94,84.315 431.965,84.315 "/>
<polygon fill="#FFFFFF" points="208.366,172.076 208.366,206.652 119.6,206.652 119.6,84.315 160.014,84.315 160.014,172.076 "/>
<path fill="#FFFFFF" d="M67.692,84.315H0v122.337h40.414v-35.396l30.051,0.055C119.6,171.31,119.6,84.315,67.692,84.315
	 M59.026,137.638l-18.612-0.047V119.62l18.611-0.02C67.389,120.279,67.705,136.869,59.026,137.638z"/>
<path fill="#62BBB7" d="M923.682,102.744v103.908c36.217,0,74.715,4.604,107.155-15.004c49.73-30.06,64.512-97.064,33.154-145.649
	C1018.119-20.367,915.643-14.498,881.9,60.87c-1.602,3.719-2.917,7.478-4.196,11.313c7.339,2.618,14.427,6.669,20.251,11.857
	c15.795-64.92,100.877-83.677,142.681-31.656c39.394,50.814,5.966,126.703-58.385,131.369c-11.928,0.543-23.916,0.185-35.853,0.185
	c0-22.99,0-45.979,0-68.972c0-9.283-0.807-18.628,3.88-27.104c9.423-17.051,32.661-20.561,47.114-7.833
	c18.957,17.726,8.705,49.964-17.239,53.094c-7.439,0.288-14.908,0.091-22.354,0.091v22.809c19.058,0,37.025,0.862,52.846-12.056
	c22.241-18.166,25.66-51.271,8.368-73.974c-28.63-35.063-86.769-21.474-94.604,23.993
	C923.954,96.878,923.709,99.817,923.682,102.744"/>
<path fill="#FFFFFF" d="M630.968,84.315h-67.689v122.337h40.414v-35.396l30.051,0.055C680.495,171.31,679.832,84.315,630.968,84.315
	 M622.302,137.638l-18.609-0.047V119.62l18.609-0.02C630.665,120.279,630.981,136.869,622.302,137.638z"/>
</svg>
