<?xml version="1.0" encoding="UTF-8" standalone="no"?> <!--Generator: Xara Designer (www.xara.com), SVG filter version: 6.1.0.18--> <svg xmlns:xlink="http://www.w3.org/1999/xlink" xmlns="http://www.w3.org/2000/svg" stroke-width="0.501" stroke-linejoin="bevel" fill-rule="evenodd" overflow="visible" width="222.462pt" height="119.319pt" viewBox="0 0 222.462 119.319"><defs> </defs><g id="Document" fill="none" stroke="black" font-family="Times New Roman" font-size="16" transform="scale(1 -1)"><g id="Spread" transform="translate(0 -119.319)"><g id="Layer 1"><g id="Group" fill-rule="evenodd" stroke-linejoin="miter" stroke="none" stroke-width="2.728" stroke-miterlimit="79.8403193612775"><g id="Group_1"><path d="M 16.776,68.388 L 28.616,79.654 L 63.697,113.181 C 64.518,114.119 65.558,114.841 66.725,115.281 C 68.766,115.933 70.992,115.154 72.181,113.372 C 73.425,111.514 73.085,109.019 71.39,107.561 C 67.543,103.797 63.669,100.087 59.769,96.377 L 16.558,54.912 L 15.494,53.848 C 14.042,52.435 11.859,52.086 10.038,52.975 C 8.211,53.772 7.109,55.657 7.31,57.64 C 7.419,67.351 7.52,77.063 7.61,86.774 C 7.61,94.685 7.61,102.596 7.61,110.535 C 7.329,112.361 8.147,114.183 9.698,115.187 C 11.25,116.191 13.246,116.191 14.798,115.187 C 16.349,114.183 17.166,112.361 16.885,110.535 C 16.885,97.386 16.785,84.237 16.585,71.089 Z" fill="#ffffff" marker-start="none" marker-end="none"></path><path d="M 101.779,68.715 L 111.272,77.772 L 148.481,113.235 C 149.447,114.415 150.819,115.193 152.327,115.418 C 154.237,115.709 156.119,114.741 156.992,113.017 C 158.078,111.245 157.745,108.951 156.201,107.561 C 154.482,105.788 152.655,104.097 150.882,102.378 L 101.533,55.239 C 101.042,54.776 100.551,54.285 100.006,53.848 C 98.537,52.449 96.336,52.152 94.55,53.112 C 92.817,53.938 91.783,55.756 91.958,57.667 C 91.958,66.069 92.122,74.471 92.204,82.873 L 92.367,110.753 C 92.231,112.038 92.63,113.323 93.472,114.304 C 94.314,115.285 95.523,115.875 96.814,115.936 C 98.145,116 99.437,115.477 100.35,114.507 C 101.263,113.536 101.706,112.214 101.56,110.889 C 101.56,103.387 101.56,95.886 101.56,88.384 C 101.56,82.328 101.56,76.272 101.56,70.216 C 101.424,69.752 101.233,69.261 101.779,68.715 Z" fill="#ffffff" marker-start="none" marker-end="none"></path><path d="M 90.321,33.143 C 90.321,27.06 90.321,21.44 90.321,15.821 C 90.321,12.329 90.321,8.81 90.321,5.291 C 90.321,2.918 89.121,1.472 87.239,1.445 C 85.357,1.417 84.156,2.808 84.184,5.264 C 84.184,16.703 84.229,28.124 84.32,39.526 C 84.32,41.191 84.538,42.718 86.339,43.482 C 88.139,44.246 89.476,43.264 90.676,42.009 C 95.177,37.371 99.733,32.761 104.316,28.042 C 105.298,26.978 105.843,27.033 106.853,28.042 C 111.326,32.625 115.882,37.099 120.492,41.682 C 121.774,42.964 123.22,43.973 125.048,43.155 C 126.876,42.336 126.958,40.645 126.93,38.954 C 126.93,27.605 126.739,16.23 126.603,4.882 C 126.603,2.427 125.484,1.172 123.411,1.226 C 121.338,1.281 120.029,2.536 120.029,4.745 C 120.029,12.929 120.22,20.84 120.301,28.888 C 120.301,29.979 120.301,31.07 120.301,32.297 C 119.347,32.297 118.965,31.506 118.501,31.015 C 115.2,27.687 111.954,24.332 108.653,21.004 C 106.171,18.494 104.534,18.521 101.997,21.004 C 98.669,24.386 95.359,27.787 92.067,31.206 C 91.685,32.025 91.194,32.352 90.321,33.143 Z" fill="#ae9654" marker-start="none" marker-end="none"></path><path d="M 177.124,11.892 C 177.124,16.83 177.124,21.822 177.124,26.814 C 177.124,30.933 177.124,34.998 177.124,39.199 C 177.124,41.627 178.325,43.018 180.261,42.991 C 182.198,42.964 183.317,41.6 183.289,39.172 C 183.289,27.824 183.289,16.448 183.017,5.1 C 183.017,3.381 183.017,1.663 181.08,0.953 C 179.143,0.244 177.861,1.335 176.579,2.645 C 167.486,11.974 158.392,21.286 149.299,30.579 C 148.806,31.155 148.341,31.756 147.908,32.379 L 147.062,32.106 C 147.062,29.379 147.062,26.651 147.062,23.923 C 147.062,17.376 147.062,10.856 147.062,4.309 C 147.182,3.032 146.512,1.812 145.371,1.226 C 144.304,0.669 143.008,0.798 142.07,1.554 C 141.228,2.196 140.775,3.226 140.87,4.282 L 141.143,40.208 C 141.151,41.418 141.897,42.5 143.025,42.936 C 144.333,43.524 145.874,43.167 146.79,42.063 L 157.347,31.152 L 175.788,12.22 C 176.128,11.854 176.653,11.726 177.124,11.892 Z" fill="#ae9654" marker-start="none" marker-end="none"></path><path d="M 222.244,13.584 C 222.19,13.03 222.19,12.473 222.244,11.92 C 223.035,7.391 220.471,4.854 216.788,2.972 C 209.348,-1.499 199.914,-0.89 193.11,4.5 C 186.112,9.362 182.915,18.091 185.117,26.323 C 186.865,33.755 192.424,39.701 199.72,41.946 C 207.017,44.191 214.957,42.398 220.58,37.235 C 222.435,35.516 222.626,33.88 221.289,32.407 C 219.953,30.933 218.125,30.961 216.243,32.652 C 211.753,36.579 205.387,37.527 199.948,35.081 C 194.509,32.634 190.995,27.241 190.955,21.277 C 190.907,15.679 194.095,10.557 199.139,8.128 C 203.96,5.474 209.849,5.684 214.47,8.674 C 215.611,9.198 216.284,10.4 216.134,11.647 C 216.024,13.782 216.024,15.922 216.134,18.058 C 216.134,20.349 217.361,21.577 219.325,21.549 C 221.289,21.522 222.299,20.295 222.299,17.921 C 222.299,16.475 222.299,15.03 222.299,13.584 Z" fill="#ae9653" marker-start="none" marker-end="none"></path><path d="M 37.563,14.866 C 37.522,14.385 37.522,13.901 37.563,13.42 C 38.354,9.028 35.954,6.546 32.462,4.527 C 24.941,0.175 15.554,0.7 8.565,5.864 C 1.604,11.089 -1.518,19.996 0.654,28.424 C 2.71,36.817 9.666,43.115 18.222,44.328 C 24.76,45.512 31.469,43.482 36.254,38.872 C 38.081,37.153 38.218,35.462 36.799,34.043 C 36.124,33.399 35.21,33.065 34.279,33.122 C 33.347,33.179 32.481,33.622 31.889,34.343 C 27.448,38.622 20.823,39.708 15.249,37.071 C 9.527,34.682 5.908,28.971 6.192,22.777 C 6.107,17.162 9.305,12.013 14.376,9.601 C 19.242,6.908 25.2,7.14 29.843,10.201 C 30.885,10.691 31.507,11.783 31.398,12.929 C 31.398,15.33 31.398,17.73 31.589,20.131 C 31.586,20.899 31.907,21.633 32.473,22.152 C 33.039,22.671 33.797,22.928 34.562,22.859 C 35.37,22.889 36.154,22.584 36.727,22.015 C 37.301,21.447 37.614,20.666 37.59,19.858 C 37.59,18.139 37.59,16.421 37.59,14.702 Z" fill="#ae9653" marker-start="none" marker-end="none"></path><path d="M 86.584,83.855 C 86.584,75.317 86.584,66.779 86.584,58.267 C 86.617,57.305 86.525,56.342 86.311,55.403 C 85.804,53.372 83.927,51.988 81.838,52.102 C 79.77,52.158 78.01,53.625 77.582,55.649 C 77.364,57.278 77.364,58.929 77.582,60.559 C 77.691,77.054 77.818,93.567 77.964,110.098 C 77.652,112.601 79.375,114.902 81.865,115.308 C 83.297,115.595 84.781,115.182 85.859,114.196 C 86.937,113.21 87.48,111.769 87.321,110.316 C 87.321,103.851 87.184,97.386 87.13,90.921 C 87.13,88.575 87.13,86.229 87.13,83.91 Z" fill="#ffffff" marker-start="none" marker-end="none"></path><path d="M 137.187,24.85 C 137.187,18.194 137.187,11.511 137.187,4.854 C 137.187,2.29 136.151,1.117 134.105,1.144 C 132.059,1.172 130.94,2.508 130.94,4.964 C 131.295,16.503 131.104,28.069 131.24,39.608 C 131.24,41.982 132.495,43.4 134.405,43.373 C 136.314,43.346 137.433,41.954 137.433,39.499 C 137.433,34.616 137.433,29.733 137.433,24.85 Z" fill="#ae9654" marker-start="none" marker-end="none"></path><path d="M 185.744,119.319 C 165.444,119.334 148.977,102.883 148.972,82.582 C 148.967,62.281 165.425,45.823 185.726,45.828 C 206.027,45.833 222.478,62.3 222.462,82.601 C 222.417,102.861 206.005,119.274 185.744,119.319 Z M 184.571,70.216 C 184.571,65.605 184.571,60.995 184.571,56.385 C 184.571,53.657 183.344,53.084 181.025,54.394 C 174.696,57.995 168.422,61.677 161.93,65.305 C 159.472,66.622 158.018,69.262 158.22,72.043 C 158.22,79.873 158.22,87.729 158.22,95.558 C 158.22,98.477 159.338,99.186 161.93,97.932 L 182.089,87.975 C 183.773,87.244 184.805,85.521 184.653,83.692 C 184.544,79.218 184.571,74.744 184.571,70.216 Z M 183.098,90.211 C 176.524,93.485 169.895,96.649 163.294,99.868 C 162.557,100.223 161.575,100.441 161.548,101.423 C 161.52,102.405 162.53,102.624 163.266,102.924 L 181.789,110.398 C 184.358,111.453 187.24,111.453 189.809,110.398 L 208.523,102.951 C 209.177,102.705 210.105,102.624 210.187,101.669 C 210.269,100.714 209.259,100.441 208.55,100.087 C 201.867,96.786 195.21,93.567 188.582,90.266 C 186.875,89.324 184.805,89.324 183.098,90.266 Z M 209.859,65.66 C 203.476,62.032 197.12,58.349 190.764,54.748 C 188.036,53.193 186.781,53.903 186.754,57.013 C 186.754,61.432 186.754,65.824 186.754,70.216 C 186.754,74.608 186.754,78.891 186.754,83.228 C 186.575,85.482 187.894,87.588 190,88.411 C 196.438,91.494 202.821,94.713 209.096,97.877 C 211.824,99.214 213.051,98.477 213.051,95.34 C 213.051,87.374 213.051,79.409 213.051,71.416 C 213.277,69.001 212.014,66.691 209.859,65.578 Z" fill="#ae9653" marker-start="none" marker-end="none"></path><path d="M 80.037,39.663 C 80.037,41.245 80.037,42.718 78.264,43.482 C 76.755,44.14 74.991,43.691 73.981,42.391 L 37.809,7.637 C 35.981,5.891 35.763,4.2 37.099,2.808 C 38.436,1.417 40.346,1.445 42.173,3.19 L 53.085,13.557 C 53.635,14.166 54.419,14.514 55.24,14.511 C 60.696,14.511 66.397,14.511 71.962,14.511 C 73.19,14.511 73.654,14.184 73.572,12.875 C 73.435,10.338 73.572,7.773 73.572,5.236 C 73.572,2.699 74.745,1.69 76.709,1.717 C 78.673,1.745 79.71,2.863 79.71,5.291 C 79.71,11.074 79.71,16.857 79.71,22.641 L 80.037,22.641 C 80.019,28.26 80.019,33.934 80.037,39.663 Z M 73.408,20.567 C 72.262,19.394 69.889,20.267 67.952,20.213 C 65.552,20.213 63.178,20.213 60.123,20.213 L 73.763,33.225 C 73.763,30.497 73.763,28.233 73.763,25.941 C 73.654,24.195 74.554,21.822 73.408,20.649 Z" fill="#ae9654" marker-start="none" marker-end="none"></path><path d="M 197.038,66.969 C 197.041,65.587 196.694,64.226 196.029,63.014 C 195.538,62.059 194.883,61.159 193.683,61.323 C 192.482,61.486 192.21,62.387 191.91,63.369 C 191.337,65.363 191.583,67.503 192.592,69.315 C 193.028,70.27 193.71,71.143 194.91,71.007 C 196.111,70.87 196.438,69.916 196.711,68.961 C 196.862,68.305 196.971,67.64 197.038,66.969 Z" fill="#af9755" marker-start="none" marker-end="none"></path><path d="M 209.778,89.093 C 209.873,87.359 209.415,85.639 208.468,84.183 C 207.295,82.464 205.74,82.601 204.895,84.51 C 204.039,86.661 204.22,89.085 205.386,91.084 C 205.716,92.032 206.619,92.66 207.622,92.639 C 208.796,92.639 209.177,91.657 209.45,90.702 C 209.588,90.172 209.698,89.635 209.778,89.093 Z" fill="#af9755" marker-start="none" marker-end="none"></path><path d="M 204.022,77.554 C 204.159,75.795 203.623,74.049 202.521,72.671 C 201.348,71.28 199.793,71.552 199.166,73.298 C 198.24,75.649 198.568,78.309 200.039,80.364 C 201.157,82.082 202.767,81.809 203.612,79.9 C 203.913,79.156 204.053,78.356 204.022,77.554 Z" fill="#af9755" marker-start="none" marker-end="none"></path><path d="M 174.587,81.346 C 174.587,83.01 174.587,85.083 176.579,85.383 C 178.57,85.683 179.307,83.61 179.661,81.946 C 180.138,80.511 180.138,78.961 179.661,77.527 C 179.334,76.654 178.843,75.835 177.833,75.781 C 176.985,75.79 176.219,76.29 175.869,77.063 C 175.038,78.337 174.592,79.824 174.587,81.346 Z" fill="#af9755" marker-start="none" marker-end="none"></path><path d="M 180.043,64.542 C 180.043,63.205 180.043,61.104 178.024,60.859 C 176.006,60.613 175.487,62.714 174.996,64.378 C 174.483,65.963 174.611,67.686 175.351,69.179 C 175.549,69.829 176.107,70.305 176.78,70.399 C 177.454,70.492 178.12,70.187 178.488,69.616 C 179.665,68.201 180.225,66.373 180.043,64.542 Z" fill="#af9755" marker-start="none" marker-end="none"></path><path d="M 167.631,69.97 C 167.665,69.744 167.665,69.514 167.631,69.288 C 167.386,68.279 167.113,67.215 165.885,66.997 C 164.658,66.779 164.03,67.761 163.594,68.715 C 162.593,70.545 162.463,72.726 163.239,74.662 C 164.003,76.408 165.394,76.545 166.54,74.99 C 167.492,73.501 167.879,71.72 167.631,69.97 Z" fill="#af9755" marker-start="none" marker-end="none"></path><path d="M 162.584,87.183 C 162.584,88.684 162.584,90.593 164.385,90.893 C 166.185,91.194 166.813,89.339 167.276,87.811 C 167.672,86.559 167.672,85.216 167.276,83.964 C 167.004,83.064 166.622,82.164 165.612,82.055 C 164.603,81.946 163.894,82.737 163.403,83.61 C 162.823,84.709 162.541,85.941 162.584,87.183 Z" fill="#af9755" marker-start="none" marker-end="none"></path><path d="M 186.454,105.461 C 188.024,105.538 189.571,105.055 190.818,104.097 C 191.573,103.59 192.025,102.741 192.025,101.832 C 192.025,100.924 191.573,100.075 190.818,99.568 C 187.923,97.59 184.111,97.59 181.216,99.568 C 180.518,100.082 180.107,100.898 180.107,101.764 C 180.107,102.631 180.518,103.446 181.216,103.96 C 182.718,105.087 184.583,105.621 186.454,105.461 Z" fill="#ae9654" marker-start="none" marker-end="none"></path></g></g></g></g></g></svg> 