<svg id="Layer_1" data-name="Layer 1" xmlns="http://www.w3.org/2000/svg" xmlns:xlink="http://www.w3.org/1999/xlink" width="128.25mm" height="44.13mm" viewBox="0 0 363.54 125.09"><defs><style>.cls-1{fill:#fff;}.cls-2{fill:url(#linear-gradient);}.cls-3{fill:url(#linear-gradient-2);}.cls-4{fill:url(#linear-gradient-3);}.cls-5{fill:url(#linear-gradient-4);}.cls-6{fill:url(#linear-gradient-5);}.cls-7{fill:url(#linear-gradient-6);}.cls-8{fill:url(#linear-gradient-7);}.cls-9{fill:url(#linear-gradient-8);}.cls-10{fill:#fecf08;}</style><linearGradient id="linear-gradient" x1="950.69" y1="-102.86" x2="980.67" y2="-46.35" gradientTransform="translate(-936.14 132.51)" gradientUnits="userSpaceOnUse"><stop offset="0" stop-color="#fecf08"/><stop offset="1" stop-color="#f9a11e"/></linearGradient><linearGradient id="linear-gradient-2" x1="979.24" y1="-22.06" x2="995.75" y2="-56.26" gradientTransform="translate(-804.92 534.69) rotate(-23.74)" xlink:href="#linear-gradient"/><linearGradient id="linear-gradient-3" x1="991.32" y1="-16.04" x2="1007.85" y2="-50.29" gradientTransform="translate(-810.26 539.09) rotate(-23.74)" xlink:href="#linear-gradient"/><linearGradient id="linear-gradient-4" x1="991.47" y1="-18.55" x2="1007.69" y2="-52.14" gradientTransform="translate(-799.43 541.37) rotate(-23.74)" xlink:href="#linear-gradient"/><linearGradient id="linear-gradient-5" x1="993.8" y1="-12.98" x2="1017.21" y2="-68.01" xlink:href="#linear-gradient"/><linearGradient id="linear-gradient-6" x1="1003.77" y1="-10.82" x2="1020.15" y2="-44.74" gradientTransform="matrix(0.92, -0.4, 0.4, 0.92, -815.52, 543.51)" xlink:href="#linear-gradient"/><linearGradient id="linear-gradient-7" x1="980.42" y1="-21.9" x2="996.79" y2="-55.81" gradientTransform="translate(-817.85 531.97) rotate(-23.74)" xlink:href="#linear-gradient"/><linearGradient id="linear-gradient-8" x1="1003.02" y1="-10.92" x2="1019.48" y2="-45.02" gradientTransform="translate(-807.24 545.25) rotate(-23.74)" xlink:href="#linear-gradient"/></defs><title>tv_bet_logo_for_black</title><path class="cls-1" d="M146,66.44a1.88,1.88,0,0,1,1.38.56,1.81,1.81,0,0,1,.57,1.32v8.39a1.75,1.75,0,0,1-.57,1.35,1.93,1.93,0,0,1-1.38.53h-17.4a4.3,4.3,0,0,1,3,1.2,3.6,3.6,0,0,1,1.31,2.69v34.34a1.51,1.51,0,0,1-.6,1.28,1.82,1.82,0,0,1-1.35.52H120.53a1.82,1.82,0,0,1-1.35-.52,1.51,1.51,0,0,1-.6-1.28v-36a2.1,2.1,0,0,0-.68-1.65,2.28,2.28,0,0,0-1.57-.6H105.46a2,2,0,0,1-1.35-.53,1.71,1.71,0,0,1-.6-1.35V72.89a6.2,6.2,0,0,1,.56-2.63,6.71,6.71,0,0,1,1.5-2.06,6.57,6.57,0,0,1,2.1-1.31,6.46,6.46,0,0,1,2.36-.45Z"/><path class="cls-1" d="M200.58,66.44a1.58,1.58,0,0,1,1.09.45,1.41,1.41,0,0,1,.49,1,1.86,1.86,0,0,1-.08.68l-15.14,47.83a3.58,3.58,0,0,1-1,1.57,3.1,3.1,0,0,1-2.1.6h-12a3.1,3.1,0,0,1-2.1-.6,3.63,3.63,0,0,1-1.05-1.57L153.65,68.62l-.15-.68a1.44,1.44,0,0,1,.45-1,1.79,1.79,0,0,1,1.2-.45h9.75a2.71,2.71,0,0,1,1.87.6,3.54,3.54,0,0,1,.9,1.35l9.82,32.54c0,.2.13.3.38.3a.27.27,0,0,0,.3-.3l9.89-32.54a2.55,2.55,0,0,1,1.05-1.46,3.07,3.07,0,0,1,1.73-.49Z"/><path class="cls-1" d="M207.69,116.82V73a6.21,6.21,0,0,1,.63-2.92,6.87,6.87,0,0,1,1.62-2,6.19,6.19,0,0,1,2.13-1.2,7.07,7.07,0,0,1,2.14-.38h18.44a35.16,35.16,0,0,1,7.2.71,16.63,16.63,0,0,1,5.92,2.44,12.33,12.33,0,0,1,4,4.61,15.42,15.42,0,0,1,1.5,7.16,11,11,0,0,1-1.61,5.85,11.87,11.87,0,0,1-4.46,4.2A10.48,10.48,0,0,1,250.53,96a13.15,13.15,0,0,1,1.91,6.78,16,16,0,0,1-1.53,7.35,13.71,13.71,0,0,1-4.16,4.91,17.34,17.34,0,0,1-6.11,2.77,30.48,30.48,0,0,1-7.39.87H209.56a1.93,1.93,0,0,1-1.87-1.88Zm23.39-29.69a6,6,0,0,0,4.12-1.38,5.08,5.08,0,0,0,1.58-4,4.77,4.77,0,0,0-1.62-3.94,6.26,6.26,0,0,0-4.08-1.31h-13.5a3.94,3.94,0,0,1,2.93,1.23,3.87,3.87,0,0,1,1.2,2.74V85a2.31,2.31,0,0,0,.6,1.42,2,2,0,0,0,1.65.75Zm.67,21.44a6.37,6.37,0,0,0,4.39-1.49,5.45,5.45,0,0,0,1.69-4.28,5.63,5.63,0,0,0-1.73-4.31,6.14,6.14,0,0,0-4.35-1.61H217.58a3.91,3.91,0,0,1,2.93,1.24,3.83,3.83,0,0,1,1.2,2.73v5.48a2.46,2.46,0,0,0,.56,1.5,2,2,0,0,0,1.69.74Z"/><path class="cls-1" d="M258.11,116.9V73a6.17,6.17,0,0,1,1.95-4.69,6.48,6.48,0,0,1,4.58-1.83h30.59a1.91,1.91,0,0,1,1.94,2v7.42a1.57,1.57,0,0,1-.52,1.27,1.92,1.92,0,0,1-1.42.53H267.56a3.82,3.82,0,0,1,3,1.27,4,4,0,0,1,1.16,2.78v3.14a2.58,2.58,0,0,0,.57,1.58,2,2,0,0,0,1.68.75h16.35a1.93,1.93,0,0,1,2,2V95.9a1.87,1.87,0,0,1-.57,1.39,1.84,1.84,0,0,1-1.38.56H267.56a4,4,0,0,1,2.93,1.2,3.76,3.76,0,0,1,1.19,2.7v3.53a2.47,2.47,0,0,0,.6,1.57,2,2,0,0,0,1.65.75h21.9a1.72,1.72,0,0,1,1.94,2v7.35a1.7,1.7,0,0,1-.56,1.38,2,2,0,0,1-1.38.49H260a1.93,1.93,0,0,1-1.88-1.87Z"/><path class="cls-1" d="M339.07,66.44a1.88,1.88,0,0,1,1.38.56,1.81,1.81,0,0,1,.57,1.32v8.39a1.75,1.75,0,0,1-.57,1.35,1.93,1.93,0,0,1-1.38.53h-11a4.28,4.28,0,0,1,3,1.2,3.6,3.6,0,0,1,1.31,2.69v34.34a1.51,1.51,0,0,1-.6,1.28,1.82,1.82,0,0,1-1.35.52H320a1.82,1.82,0,0,1-1.35-.52,1.51,1.51,0,0,1-.6-1.28v-36a2.09,2.09,0,0,0-.67-1.65,2.31,2.31,0,0,0-1.58-.6H304.92a2,2,0,0,1-1.35-.53,1.71,1.71,0,0,1-.6-1.35V72.89a6.2,6.2,0,0,1,.56-2.63A6.87,6.87,0,0,1,305,68.2a6.79,6.79,0,0,1,2.1-1.31,6.5,6.5,0,0,1,2.36-.45Z"/><path class="cls-2" d="M73.49,118.48H43.22a2.33,2.33,0,0,1-2.09-1.31L4.92,43.07A2.32,2.32,0,0,1,7,39.73H38.35a2.32,2.32,0,0,1,2.1,1.33l35.14,74.1A2.32,2.32,0,0,1,73.49,118.48Z"/><path class="cls-3" d="M85.07,8.38H87a2.31,2.31,0,0,1,2.31,2.31V32.32A2.32,2.32,0,0,1,87,34.65H85.07a2.32,2.32,0,0,1-2.32-2.32V10.7a2.32,2.32,0,0,1,2.32-2.32Z" transform="translate(15.94 -32.82) rotate(23.74)"/><path class="cls-4" d="M92.87,20h1.92a2.32,2.32,0,0,1,2.32,2.32V50.45a2.36,2.36,0,0,1-2.36,2.36H92.87a2.32,2.32,0,0,1-2.32-2.32V22.31A2.32,2.32,0,0,1,92.87,20Z" transform="translate(22.6 -34.7) rotate(23.74)"/><rect class="cls-5" x="101.38" y="8.49" width="6.57" height="6.57" rx="2.32" ry="2.32" transform="translate(13.6 -41.15) rotate(23.74)"/><path class="cls-6" d="M93.56,61.48,95.7,56.6a2.32,2.32,0,0,0-1.19-3.06l-2-.89a2,2,0,0,0-2.67,1L86.61,61,80.8,74.17a2.32,2.32,0,0,1-3.06,1.19L76,74.59a2.34,2.34,0,0,1-1.19-3.07l5.81-13.2,7.69-17.48a2.32,2.32,0,0,0-1.19-3.06L85.34,37a2.31,2.31,0,0,0-3.06,1.19L74.59,55.68,72,61.48A2.33,2.33,0,0,1,69,62.67l-1.76-.77a2.31,2.31,0,0,0-3.06,1.19L41.23,115.22a2.32,2.32,0,0,0,2.12,3.26H73.69a2.31,2.31,0,0,0,2.12-1.38L98,67.73a1.61,1.61,0,0,0-.82-2.13l-2.4-1A2.32,2.32,0,0,1,93.56,61.48Z"/><rect class="cls-7" x="98.42" y="45.65" width="6.57" height="10.94" rx="2.32" ry="2.32" transform="translate(29.19 -36.62) rotate(23.74)"/><rect class="cls-8" x="69.82" y="45.44" width="6.57" height="10.94" rx="2.32" ry="2.32" transform="translate(26.69 -25.12) rotate(23.74)"/><rect class="cls-9" x="106.69" y="23.55" width="6.57" height="17.51" rx="2.32" ry="2.32" transform="translate(22.32 -41.55) rotate(23.74)"/><path class="cls-10" d="M352.41,66.32h-4a2.18,2.18,0,0,0-2.18,2.18v8a2.17,2.17,0,0,0,2.18,2.18h8a2.18,2.18,0,0,0,2.19-2.18v-8a2.19,2.19,0,0,0-2.19-2.18Z"/></svg>